<svg viewBox="0 0 220 220" fill="none" xmlns="http://www.w3.org/2000/svg">
  <g>
    <path d="M177.5 96C177.5 133.279 147.279 163.5 110 163.5C72.7208 163.5 42.5 133.279 42.5 96C42.5 58.7208 72.7208 28.5 110 28.5C147.279 28.5 177.5 58.7208 177.5 96Z" fill="white" stroke="{{color}}" stroke-width="25" className="white" />
    <g transform="translate(59, 45)">
      <g transform="scale(0.46)">{{logo}}</g>
    </g>
  </g>
  <path d="M0 207.503C0 200.601 5.59507 195.006 12.4969 195.006H207.503C214.405 195.006 220 200.601 220 207.503C220 214.405 214.405 220 207.503 220H12.4969C5.59507 220 0 214.405 0 207.503Z" fill="{{color}}" className="white" />
  <path d="M175 22.1691C175 19.2453 177.37 16.875 180.294 16.875H214.706C217.63 16.875 220 19.2453 220 22.1691C220 25.093 217.63 27.4632 214.706 27.4632H180.294C177.37 27.4632 175 25.093 175 22.1691Z" fill="{{color}}" className="white" />
  <path d="M197.169 45C194.245 45 191.875 42.6297 191.875 39.7059L191.875 5.29412C191.875 2.37026 194.245 -1.03607e-07 197.169 -2.31413e-07C200.093 -3.59219e-07 202.463 2.37026 202.463 5.29412L202.463 39.7059C202.463 42.6297 200.093 45 197.169 45Z" fill="{{color}}" className="white" />
</svg>
