<svg preserveAspectRatio="none" viewBox="0 0 88 88" fill="none" xmlns="http://www.w3.org/2000/svg">
<path d="M86.2503 54.5389C80.432 77.8761 56.7939 92.0775 33.4539 86.2592C10.1248 80.4408 -4.07792 56.8027 1.74175 33.4669C7.55735 10.1269 31.1941 -4.07721 54.5273 1.7411C77.8659 7.55942 92.0672 31.2002 86.2489 54.5389H86.2503Z" fill="#F7931A"/>
<path d="M63.203 37.7947C64.0688 31.9982 59.6554 28.8821 53.6206 26.8033L55.5782 18.9512L50.7972 17.76L48.8913 25.4053C47.6362 25.0922 46.3457 24.7967 45.0633 24.5041L46.9828 16.8085L42.2059 15.6173L40.2469 23.4667C39.2069 23.2299 38.1859 22.9957 37.1948 22.7493L37.2003 22.7248L30.6087 21.079L29.3372 26.1839C29.3372 26.1839 32.8835 26.9967 32.8086 27.047C34.7444 27.5303 35.0957 28.8113 35.0358 29.8269L32.8059 38.7721C32.9393 38.8062 33.1122 38.8552 33.3028 38.9314L32.7991 38.8062L29.6721 51.3372C29.4353 51.9253 28.8349 52.8074 27.4817 52.4725C27.5294 52.542 24.0076 51.6054 24.0076 51.6054L21.6348 57.0779L27.8561 58.6285C29.0132 58.9184 30.1472 59.222 31.2622 59.5079L29.2841 67.4512L34.0583 68.6424L36.0186 60.7848C37.3214 61.1388 38.5875 61.4655 39.8263 61.7731L37.8741 69.594L42.6537 70.7851L44.6318 62.8581C52.782 64.4005 58.9121 63.7784 61.4891 56.4081C63.5678 50.4728 61.387 47.049 57.0988 44.8151C60.2217 44.0922 62.5741 42.038 63.2016 37.7947H63.203ZM52.2811 53.1083C50.8027 59.0437 40.8105 55.8364 37.5692 55.0305L40.1938 44.5088C43.4338 45.3174 53.8221 46.9183 52.2824 53.1083H52.2811ZM53.7581 37.7089C52.4104 43.108 44.0927 40.3649 41.3932 39.6924L43.7728 30.1495C46.4723 30.822 55.163 32.0771 53.7581 37.7089Z" fill="white"/>
</svg>
