<svg viewBox="0 0 220 220" fill="none" xmlns="http://www.w3.org/2000/svg"><path d="M155.266 68.5032C151.319 64.5558 151.319 58.1558 155.266 54.2083L161.436 48.039C165.383 44.0916 171.783 44.0916 175.73 48.039C179.678 51.9864 179.678 58.3865 175.73 62.3339L169.561 68.5032C165.614 72.4507 159.214 72.4507 155.266 68.5032Z" fill="white"/><path d="M155.165 158.739C159.113 154.791 165.513 154.791 169.46 158.739L177.627 166.905C181.574 170.853 181.574 177.253 177.627 181.2C173.679 185.148 167.279 185.148 163.332 181.2L155.165 173.034C151.218 169.086 151.218 162.686 155.165 158.739Z" fill="white"/><path d="M45.0513 48.6247C48.9987 44.6773 55.3988 44.6773 59.3462 48.6247L67.3434 56.622C71.2909 60.5694 71.2909 66.9694 67.3434 70.9169C63.396 74.8643 56.996 74.8643 53.0485 70.9169L45.0513 62.9196C41.1038 58.9722 41.1038 52.5721 45.0513 48.6247Z" fill="white"/><path d="M45.723 179.55C41.7755 175.603 41.7755 169.203 45.723 165.255L52.2397 158.739C56.1871 154.791 62.5871 154.791 66.5346 158.739C70.482 162.686 70.482 169.086 66.5346 173.034L60.0179 179.55C56.0704 183.498 49.6704 183.498 45.723 179.55Z" fill="white"/><path d="M0 110.742C0 105.16 4.52552 100.634 10.108 100.634H38.418C44.0005 100.634 48.526 105.16 48.526 110.742C48.526 116.325 44.0005 120.85 38.418 120.85H10.108C4.52551 120.85 0 116.325 0 110.742Z" fill="white"/><path d="M171.474 110.742C171.474 105.16 176 100.634 181.582 100.634H209.892C215.474 100.634 220 105.16 220 110.742C220 116.325 215.474 120.85 209.892 120.85H181.582C176 120.85 171.474 116.325 171.474 110.742Z" fill="white"/><g><path d="M169.856 112.16C169.856 144.555 143.588 170.821 111.178 170.821C78.7681 170.821 52.5 144.555 52.5 112.16C52.5 79.7661 78.7681 53.5 111.178 53.5C143.588 53.5 169.856 79.7661 169.856 112.16Z" fill="white" stroke="white" stroke-width="25"/><g transform="translate(70, 70)"><g transform="scale(0.38)"><svg preserveAspectRatio="none" viewBox="0 0 88 88" fill="none" xmlns="http://www.w3.org/2000/svg"><path d="M86.2503 54.5389C80.432 77.8761 56.7939 92.0775 33.4539 86.2592C10.1248 80.4408 -4.07792 56.8027 1.74175 33.4669C7.55735 10.1269 31.1941 -4.07721 54.5273 1.7411C77.8659 7.55942 92.0672 31.2002 86.2489 54.5389H86.2503Z" fill="#F7931A"/><path d="M63.203 37.7947C64.0688 31.9982 59.6554 28.8821 53.6206 26.8033L55.5782 18.9512L50.7972 17.76L48.8913 25.4053C47.6362 25.0922 46.3457 24.7967 45.0633 24.5041L46.9828 16.8085L42.2059 15.6173L40.2469 23.4667C39.2069 23.2299 38.1859 22.9957 37.1948 22.7493L37.2003 22.7248L30.6087 21.079L29.3372 26.1839C29.3372 26.1839 32.8835 26.9967 32.8086 27.047C34.7444 27.5303 35.0957 28.8113 35.0358 29.8269L32.8059 38.7721C32.9393 38.8062 33.1122 38.8552 33.3028 38.9314L32.7991 38.8062L29.6721 51.3372C29.4353 51.9253 28.8349 52.8074 27.4817 52.4725C27.5294 52.542 24.0076 51.6054 24.0076 51.6054L21.6348 57.0779L27.8561 58.6285C29.0132 58.9184 30.1472 59.222 31.2622 59.5079L29.2841 67.4512L34.0583 68.6424L36.0186 60.7848C37.3214 61.1388 38.5875 61.4655 39.8263 61.7731L37.8741 69.594L42.6537 70.7851L44.6318 62.8581C52.782 64.4005 58.9121 63.7784 61.4891 56.4081C63.5678 50.4728 61.387 47.049 57.0988 44.8151C60.2217 44.0922 62.5741 42.038 63.2016 37.7947H63.203ZM52.2811 53.1083C50.8027 59.0437 40.8105 55.8364 37.5692 55.0305L40.1938 44.5088C43.4338 45.3174 53.8221 46.9183 52.2824 53.1083H52.2811ZM53.7581 37.7089C52.4104 43.108 44.0927 40.3649 41.3932 39.6924L43.7728 30.1495C46.4723 30.822 55.163 32.0771 53.7581 37.7089Z" fill="white"/></svg></g></g></g><path d="M110 55C104.477 55 100 50.5228 100 45L100 10C100 4.47715 104.477 -1.95703e-07 110 -4.37114e-07C115.523 -6.78525e-07 120 4.47715 120 10L120 45C120 50.5228 115.523 55 110 55Z" fill="white"/><path d="M110 220C104.477 220 100 215.523 100 210L100 175C100 169.477 104.477 165 110 165C115.523 165 120 169.477 120 175L120 210C120 215.523 115.523 220 110 220Z" fill="white"/></svg>