<svg viewBox="0 0 220 220" fill="none" xmlns="http://www.w3.org/2000/svg"><path d="M155.266 68.5032C151.319 64.5558 151.319 58.1558 155.266 54.2083L161.436 48.039C165.383 44.0916 171.783 44.0916 175.73 48.039C179.678 51.9864 179.678 58.3865 175.73 62.3339L169.561 68.5032C165.614 72.4507 159.214 72.4507 155.266 68.5032Z" fill="black"/><path d="M155.165 158.739C159.113 154.791 165.513 154.791 169.46 158.739L177.627 166.905C181.574 170.853 181.574 177.253 177.627 181.2C173.679 185.148 167.279 185.148 163.332 181.2L155.165 173.034C151.218 169.086 151.218 162.686 155.165 158.739Z" fill="black"/><path d="M45.0513 48.6247C48.9987 44.6773 55.3988 44.6773 59.3462 48.6247L67.3434 56.622C71.2909 60.5694 71.2909 66.9694 67.3434 70.9169C63.396 74.8643 56.996 74.8643 53.0485 70.9169L45.0513 62.9196C41.1038 58.9722 41.1038 52.5721 45.0513 48.6247Z" fill="black"/><path d="M45.723 179.55C41.7755 175.603 41.7755 169.203 45.723 165.255L52.2397 158.739C56.1871 154.791 62.5871 154.791 66.5346 158.739C70.482 162.686 70.482 169.086 66.5346 173.034L60.0179 179.55C56.0704 183.498 49.6704 183.498 45.723 179.55Z" fill="black"/><path d="M0 110.742C0 105.16 4.52552 100.634 10.108 100.634H38.418C44.0005 100.634 48.526 105.16 48.526 110.742C48.526 116.325 44.0005 120.85 38.418 120.85H10.108C4.52551 120.85 0 116.325 0 110.742Z" fill="black"/><path d="M171.474 110.742C171.474 105.16 176 100.634 181.582 100.634H209.892C215.474 100.634 220 105.16 220 110.742C220 116.325 215.474 120.85 209.892 120.85H181.582C176 120.85 171.474 116.325 171.474 110.742Z" fill="black"/><g><path d="M169.856 112.16C169.856 144.555 143.588 170.821 111.178 170.821C78.7681 170.821 52.5 144.555 52.5 112.16C52.5 79.7661 78.7681 53.5 111.178 53.5C143.588 53.5 169.856 79.7661 169.856 112.16Z" fill="white" stroke="black" stroke-width="25"/><g transform="translate(70, 70)"><g transform="scale(0.38)"><svg viewBox="0 0 82 82" fill="none" xmlns="http://www.w3.org/2000/svg"><path d="M41 82C63.6437 82 82 63.6437 82 41C82 18.3563 63.6437 0 41 0C18.3563 0 0 18.3563 0 41C0 63.6437 18.3563 82 41 82Z" fill="#F0F0F0"/><path d="M39.2173 41H81.9999C81.9999 37.2994 81.5066 33.7145 80.5875 30.3043H39.2173V41Z" fill="#D80027"/><path d="M39.2173 19.6088H75.9822C73.4724 15.5133 70.2633 11.8933 66.5217 8.91309H39.2173V19.6088Z" fill="#D80027"/><path d="M40.9999 82.0001C50.6492 82.0001 59.5182 78.665 66.5218 73.0871H15.4781C22.4817 78.665 31.3507 82.0001 40.9999 82.0001Z" fill="#D80027"/><path d="M6.01765 62.3913H75.9822C77.9971 59.1035 79.5598 55.5096 80.5875 51.6956H1.41235C2.44008 55.5096 4.00272 59.1035 6.01765 62.3913Z" fill="#D80027"/><path d="M18.992 6.40273H22.7283L19.2529 8.92759L20.5804 13.013L17.1052 10.4882L13.6299 13.013L14.7767 9.48365C11.7167 12.0325 9.03473 15.0188 6.82458 18.3462H8.02175L5.80951 19.9534C5.46485 20.5283 5.13429 21.1124 4.8175 21.7052L5.87389 24.9565L3.90301 23.5245C3.41309 24.5625 2.96497 25.6239 2.56218 26.7073L3.72604 30.2897H8.02175L4.54636 32.8146L5.87389 36.9L2.39866 34.3751L0.316949 35.8877C0.108586 37.5626 0 39.2686 0 41H41C41 18.3565 41 15.687 41 0C32.9006 0 25.3503 2.34949 18.992 6.40273ZM20.5804 36.9L17.1052 34.3751L13.6299 36.9L14.9575 32.8146L11.4821 30.2897H15.7778L17.1052 26.2043L18.4325 30.2897H22.7283L19.2529 32.8146L20.5804 36.9ZM19.2529 20.8711L20.5804 24.9565L17.1052 22.4316L13.6299 24.9565L14.9575 20.8711L11.4821 18.3462H15.7778L17.1052 14.2608L18.4325 18.3462H22.7283L19.2529 20.8711ZM35.2869 36.9L31.8117 34.3751L28.3364 36.9L29.664 32.8146L26.1886 30.2897H30.4843L31.8117 26.2043L33.1391 30.2897H37.4348L33.9594 32.8146L35.2869 36.9ZM33.9594 20.8711L35.2869 24.9565L31.8117 22.4316L28.3364 24.9565L29.664 20.8711L26.1886 18.3462H30.4843L31.8117 14.2608L33.1391 18.3462H37.4348L33.9594 20.8711ZM33.9594 8.92759L35.2869 13.013L31.8117 10.4882L28.3364 13.013L29.664 8.92759L26.1886 6.40273H30.4843L31.8117 2.3173L33.1391 6.40273H37.4348L33.9594 8.92759Z" fill="#0052B4"/></svg></g></g></g><path d="M110 55C104.477 55 100 50.5228 100 45L100 10C100 4.47715 104.477 -1.95703e-07 110 -4.37114e-07C115.523 -6.78525e-07 120 4.47715 120 10L120 45C120 50.5228 115.523 55 110 55Z" fill="black"/><path d="M110 220C104.477 220 100 215.523 100 210L100 175C100 169.477 104.477 165 110 165C115.523 165 120 169.477 120 175L120 210C120 215.523 115.523 220 110 220Z" fill="black"/></svg>