<svg viewBox="0 0 220 220" fill="none" xmlns="http://www.w3.org/2000/svg"><g><path d="M177.5 96C177.5 133.279 147.279 163.5 110 163.5C72.7208 163.5 42.5 133.279 42.5 96C42.5 58.7208 72.7208 28.5 110 28.5C147.279 28.5 177.5 58.7208 177.5 96Z" fill="white" stroke="black" stroke-width="25" className="white"/><g transform="translate(59, 45)"><g transform="scale(0.46)"><svg viewBox="0 0 106 106" fill="none" xmlns="http://www.w3.org/2000/svg"><path d="M52.94 105.88C82.178 105.88 105.88 82.178 105.88 52.94C105.88 23.702 82.178 0 52.94 0C23.702 0 0 23.702 0 52.94C0 82.178 23.702 105.88 52.94 105.88Z" fill="white"/><path d="M53 6.99995C78.4009 6.99995 99 27.599 99 52.9999C99 78.4005 78.4009 98.9999 53 98.9999C27.5992 98.9999 7 78.4005 7 52.9999C7 27.599 27.5992 6.99995 53 6.99995ZM92.0822 52.9999C92.0822 31.4191 74.5808 13.9175 53 13.9175C31.4192 13.9175 13.9176 31.4191 13.9176 52.9999C13.9176 74.5807 31.4192 92.0823 53 92.0823C74.5808 92.0823 92.0822 74.5807 92.0822 52.9999Z" fill="#456C91" stroke="#456C91" stroke-width="2"/></svg></g></g></g><path d="M0 207.503C0 200.601 5.59507 195.006 12.4969 195.006H207.503C214.405 195.006 220 200.601 220 207.503C220 214.405 214.405 220 207.503 220H12.4969C5.59507 220 0 214.405 0 207.503Z" fill="black" className="white"/><path d="M175 22.1691C175 19.2453 177.37 16.875 180.294 16.875H214.706C217.63 16.875 220 19.2453 220 22.1691C220 25.093 217.63 27.4632 214.706 27.4632H180.294C177.37 27.4632 175 25.093 175 22.1691Z" fill="black" className="white"/><path d="M197.169 45C194.245 45 191.875 42.6297 191.875 39.7059L191.875 5.29412C191.875 2.37026 194.245 -1.03607e-07 197.169 -2.31413e-07C200.093 -3.59219e-07 202.463 2.37026 202.463 5.29412L202.463 39.7059C202.463 42.6297 200.093 45 197.169 45Z" fill="black" className="white"/></svg>