<svg viewBox="0 0 220 220" fill="none" xmlns="http://www.w3.org/2000/svg"><g><path d="M177.5 96C177.5 133.279 147.279 163.5 110 163.5C72.7208 163.5 42.5 133.279 42.5 96C42.5 58.7208 72.7208 28.5 110 28.5C147.279 28.5 177.5 58.7208 177.5 96Z" fill="white" stroke="white" stroke-width="25" className="white"/><g transform="translate(59, 45)"><g transform="scale(0.46)"><svg viewBox="0 0 82 82" fill="none" xmlns="http://www.w3.org/2000/svg"><path d="M41 82C63.6437 82 82 63.6437 82 41C82 18.3563 63.6437 0 41 0C18.3563 0 0 18.3563 0 41C0 63.6437 18.3563 82 41 82Z" fill="#F0F0F0"/><path d="M39.2173 41H81.9999C81.9999 37.2994 81.5066 33.7145 80.5875 30.3043H39.2173V41Z" fill="#D80027"/><path d="M39.2173 19.6088H75.9822C73.4724 15.5133 70.2633 11.8933 66.5217 8.91309H39.2173V19.6088Z" fill="#D80027"/><path d="M40.9999 82.0001C50.6492 82.0001 59.5182 78.665 66.5218 73.0871H15.4781C22.4817 78.665 31.3507 82.0001 40.9999 82.0001Z" fill="#D80027"/><path d="M6.01765 62.3913H75.9822C77.9971 59.1035 79.5598 55.5096 80.5875 51.6956H1.41235C2.44008 55.5096 4.00272 59.1035 6.01765 62.3913Z" fill="#D80027"/><path d="M18.992 6.40273H22.7283L19.2529 8.92759L20.5804 13.013L17.1052 10.4882L13.6299 13.013L14.7767 9.48365C11.7167 12.0325 9.03473 15.0188 6.82458 18.3462H8.02175L5.80951 19.9534C5.46485 20.5283 5.13429 21.1124 4.8175 21.7052L5.87389 24.9565L3.90301 23.5245C3.41309 24.5625 2.96497 25.6239 2.56218 26.7073L3.72604 30.2897H8.02175L4.54636 32.8146L5.87389 36.9L2.39866 34.3751L0.316949 35.8877C0.108586 37.5626 0 39.2686 0 41H41C41 18.3565 41 15.687 41 0C32.9006 0 25.3503 2.34949 18.992 6.40273ZM20.5804 36.9L17.1052 34.3751L13.6299 36.9L14.9575 32.8146L11.4821 30.2897H15.7778L17.1052 26.2043L18.4325 30.2897H22.7283L19.2529 32.8146L20.5804 36.9ZM19.2529 20.8711L20.5804 24.9565L17.1052 22.4316L13.6299 24.9565L14.9575 20.8711L11.4821 18.3462H15.7778L17.1052 14.2608L18.4325 18.3462H22.7283L19.2529 20.8711ZM35.2869 36.9L31.8117 34.3751L28.3364 36.9L29.664 32.8146L26.1886 30.2897H30.4843L31.8117 26.2043L33.1391 30.2897H37.4348L33.9594 32.8146L35.2869 36.9ZM33.9594 20.8711L35.2869 24.9565L31.8117 22.4316L28.3364 24.9565L29.664 20.8711L26.1886 18.3462H30.4843L31.8117 14.2608L33.1391 18.3462H37.4348L33.9594 20.8711ZM33.9594 8.92759L35.2869 13.013L31.8117 10.4882L28.3364 13.013L29.664 8.92759L26.1886 6.40273H30.4843L31.8117 2.3173L33.1391 6.40273H37.4348L33.9594 8.92759Z" fill="#0052B4"/></svg></g></g></g><path d="M0 207.503C0 200.601 5.59507 195.006 12.4969 195.006H207.503C214.405 195.006 220 200.601 220 207.503C220 214.405 214.405 220 207.503 220H12.4969C5.59507 220 0 214.405 0 207.503Z" fill="white" className="white"/><path d="M175 22.1691C175 19.2453 177.37 16.875 180.294 16.875H214.706C217.63 16.875 220 19.2453 220 22.1691C220 25.093 217.63 27.4632 214.706 27.4632H180.294C177.37 27.4632 175 25.093 175 22.1691Z" fill="white" className="white"/><path d="M197.169 45C194.245 45 191.875 42.6297 191.875 39.7059L191.875 5.29412C191.875 2.37026 194.245 -1.03607e-07 197.169 -2.31413e-07C200.093 -3.59219e-07 202.463 2.37026 202.463 5.29412L202.463 39.7059C202.463 42.6297 200.093 45 197.169 45Z" fill="white" className="white"/></svg>