<svg viewBox="0 0 220 220" fill="none" xmlns="http://www.w3.org/2000/svg"><path d="M0 207.503C0 200.601 5.59507 195.006 12.4969 195.006H110H207.503C214.405 195.006 220 200.601 220 207.503C220 214.405 214.405 220 207.503 220H12.4969C5.59507 220 0 214.405 0 207.503Z" fill="black"/><g viewBox="0 0 220 220" preserveAspectRatio="none"><path d="M182.5 85C182.5 125.041 150.041 157.5 110 157.5C69.9594 157.5 37.5 125.041 37.5 85C37.5 44.9594 69.9594 12.5 110 12.5C150.041 12.5 182.5 44.9594 182.5 85Z" fill="white" stroke="black" stroke-width="25"/><g transform="translate(55, 30)"><g transform="scale(0.5)"><svg viewBox="0 0 88 42" fill="none" xmlns="http://www.w3.org/2000/svg"><path d="M23.5199 27.9241H6.63408C6.35534 27.9241 6.10248 28.0873 5.98778 28.3412L0.50128 40.4784C0.289082 40.9479 0.632308 41.4799 1.14757 41.4799H29.0065C29.5218 41.4799 29.865 40.9479 29.6528 40.4784L24.1661 28.3412C24.0515 28.0873 23.7986 27.9241 23.5199 27.9241Z" fill="#FFCD43"/><path d="M29.007 41.4799H24.1906L18.0624 27.9241H23.52C23.7987 27.9241 24.0514 28.0873 24.1662 28.3412L29.6531 40.4784C29.8656 40.9479 29.5222 41.4799 29.007 41.4799Z" fill="#FFAF45"/><path d="M52.4615 27.9241H35.5757C35.297 27.9241 35.0441 28.0873 34.9294 28.3412L29.4427 40.4784C29.2305 40.9479 29.5738 41.4799 30.089 41.4799H57.948C58.4632 41.4799 58.8065 40.9479 58.5943 40.4784L53.1076 28.3412C52.9931 28.0873 52.7402 27.9241 52.4615 27.9241Z" fill="#FFCD43"/><path d="M57.9484 41.4799H53.132L47.0038 27.9241H52.4614C52.7401 27.9241 52.9928 28.0873 53.1077 28.3412L58.5945 40.4784C58.8069 40.9479 58.4637 41.4799 57.9484 41.4799Z" fill="#FFAF45"/><path d="M81.3654 27.9241H64.4796C64.2009 27.9241 63.948 28.0873 63.8333 28.3412L58.3468 40.4784C58.1346 40.9479 58.4779 41.4799 58.9931 41.4799H86.8521C87.3673 41.4799 87.7106 40.9479 87.4984 40.4784L82.0117 28.3412C81.897 28.0873 81.6441 27.9241 81.3654 27.9241Z" fill="#FFCD43"/><path d="M86.8525 41.4799H82.0362L75.908 27.9241H81.3655C81.6443 27.9241 81.897 28.0873 82.0118 28.3412L87.4987 40.4784C87.711 40.9479 87.3678 41.4799 86.8525 41.4799Z" fill="#FFAF45"/><path d="M38.366 14.3683H21.4803C21.2015 14.3683 20.9487 14.5315 20.834 14.7854L15.3475 26.9227C15.1353 27.3922 15.4785 27.9241 15.9938 27.9241H43.8527C44.368 27.9241 44.7112 27.3922 44.499 26.9227L39.0123 14.7854C38.8976 14.5315 38.6448 14.3683 38.366 14.3683Z" fill="#FFCD43"/><path d="M43.8529 27.9241H39.0365L32.9083 14.3683H38.3659C38.6446 14.3683 38.8973 14.5315 39.0122 14.7854L44.4991 26.9227C44.7116 27.3922 44.3682 27.9241 43.8529 27.9241Z" fill="#FFAF45"/><path d="M67.3075 14.3683H50.4217C50.143 14.3683 49.8901 14.5315 49.7754 14.7854L44.2889 26.9227C44.0767 27.3922 44.42 27.9241 44.9352 27.9241H72.7942C73.3095 27.9241 73.6527 27.3922 73.4405 26.9227L67.9538 14.7854C67.8391 14.5315 67.5863 14.3683 67.3075 14.3683Z" fill="#FFCD43"/><path d="M72.7946 27.9241H67.9782L61.85 14.3683H67.3076C67.5863 14.3683 67.8392 14.5315 67.9539 14.7854L73.4407 26.9227C73.6531 27.3922 73.3099 27.9241 72.7946 27.9241Z" fill="#FFAF45"/><path d="M52.8368 0.8125H35.951C35.6723 0.8125 35.4194 0.975688 35.3048 1.22958L29.8181 13.3669C29.6059 13.8364 29.9491 14.3683 30.4644 14.3683H58.3233C58.8386 14.3683 59.1818 13.8364 58.9696 13.3669L53.4829 1.22958C53.3684 0.975688 53.1156 0.8125 52.8368 0.8125Z" fill="#FFCD43"/><path d="M58.324 14.3683H53.5077L47.3795 0.8125H52.837C53.1158 0.8125 53.3686 0.975688 53.4833 1.22958L58.9702 13.3669C59.1825 13.8364 58.8393 14.3683 58.324 14.3683Z" fill="#FFAF45"/></svg></g></g></g></svg>