<svg viewBox="0 0 220 220" fill="none" xmlns="http://www.w3.org/2000/svg"><path d="M0 207.503C0 200.601 5.59507 195.006 12.4969 195.006H110H207.503C214.405 195.006 220 200.601 220 207.503C220 214.405 214.405 220 207.503 220H12.4969C5.59507 220 0 214.405 0 207.503Z" fill="black" className="white"/><g viewBox="0 0 220 220" preserveAspectRatio="none"><path d="M182.5 85C182.5 125.041 150.041 157.5 110 157.5C69.9594 157.5 37.5 125.041 37.5 85C37.5 44.9594 69.9594 12.5 110 12.5C150.041 12.5 182.5 44.9594 182.5 85Z" fill="white" stroke="black" stroke-width="25" className="white"/><g transform="translate(55, 30)"><g transform="scale(0.5)"><svg viewBox="0 0 54 88" fill="none" xmlns="http://www.w3.org/2000/svg"><path d="M27.1726 0.4375L26.5886 2.42237V60.0186L27.1726 60.6015L53.9081 44.7982L27.1726 0.4375Z" fill="#343434"/><path d="M27.173 0.4375L0.4375 44.7981L27.173 60.6016V32.6462V0.4375Z" fill="#8C8C8C"/><path d="M27.1726 65.6636L26.8436 66.0647V86.5817L27.1726 87.5428L53.9242 49.8683L27.1726 65.6636Z" fill="#3C3C3B"/><path d="M27.173 87.5428V65.6632L0.4375 49.8679L27.173 87.5428Z" fill="#8C8C8C"/><path d="M27.1727 60.6015L53.9078 44.7984L27.1727 32.6464V60.6015Z" fill="#141414"/><path d="M0.4375 44.7981L27.1726 60.6014V32.6462L0.4375 44.7981Z" fill="#393939"/></svg></g></g></g></svg>