<svg class="inv" viewBox="0 0 125 125" fill="none" xmlns="http://www.w3.org/2000/svg">
    <g clip-path="url(#clip0_1329_275)">
        <path
            d="M59.4742 2.54292L7.38821 27.1258C4.41238 28.5303 3.13857 32.0813 4.54306 35.0571L4.54308 35.0571C5.94757 38.033 9.49852 39.3068 12.4743 37.9023L64.5603 13.3194C67.5361 11.9149 68.81 8.36393 67.4055 5.38806C66.001 2.41224 62.45 1.13843 59.4742 2.54292Z"
            fill="{{color}}" />
        <path
            d="M113.05 37.9277L60.9639 13.3448C57.9881 11.9404 56.7142 8.38941 58.1187 5.41359L58.1188 5.41355C59.5233 2.43773 63.0742 1.16391 66.05 2.56841L118.136 27.1513C121.112 28.5558 122.386 32.1067 120.981 35.0826C119.577 38.0584 116.026 39.3322 113.05 37.9277Z"
            fill="{{color}}" />
        <path
            d="M107.501 74.3554C107.501 49.6989 87.5129 29.7109 62.8564 29.7109C38.1999 29.7109 18.2119 49.6989 18.2119 74.3554C18.2119 99.0119 38.1999 119 62.8564 119C87.5129 119 107.501 99.0119 107.501 74.3554Z"
            stroke="{{color}}" stroke-width="12" />
    </g>
</svg>