<svg version="1.2" xmlns="http://www.w3.org/2000/svg" viewBox="0 0 240 240">
	<style>
		.s0 { fill: #131519 } 
		.s1 { opacity: .3;fill: #ffffff } 
		.s2 { fill: #ffffff } 
	</style>
	<path id="Layer" class="s0" d="m0 120c0-66.3 53.7-120 120-120 66.3 0 120 53.7 120 120 0 66.3-53.7 120-120 120-66.3 0-120-53.7-120-120z"/>
	<g id="Layer">
		<path id="Layer" class="s1" d="m48.3 59.5l132.2 132.8c3.1 3.1 8.1 3.1 11.2 0 3.1-3.1 3.1-8.2 0-11.3l-132.2-132.7c-3.1-3.1-8.1-3.1-11.2 0-3.1 3.1-3.1 8.1 0 11.2z"/>
		<path id="Layer" class="s2" d="m54.5 178.5l131.3 0.2c4.3 0.1 7.9 3.6 7.9 8 0 4.4-3.6 8-8 8l-131.2-0.3c-4.4 0-7.9-3.6-7.9-8 0-4.4 3.6-7.9 7.9-7.9z"/>
		<path id="Layer" class="s2" d="m54.5 45.8h131c4.4 0 8 3.6 8 8 0 4.3-3.6 7.9-8 7.9h-131c-4.4 0-8-3.6-8-7.9 0-4.4 3.6-8 8-8z"/>
		<path id="Layer" fill-rule="evenodd" class="s2" d="m79 120.7c0-22.8 18.4-41.2 41-41.2 22.6 0 41 18.4 41 41.2 0 22.7-18.4 41.1-41 41.1-22.6 0-41-18.4-41-41.1zm15.9 0c0 13.9 11.2 25.2 25.1 25.2 13.9 0 25.1-11.3 25.1-25.2 0-14-11.2-25.3-25.1-25.3-13.9 0-25.1 11.3-25.1 25.3z"/>
	</g>
</svg>