<svg viewBox="0 0 240 240" fill="none" xmlns="http://www.w3.org/2000/svg">
    <rect width="240" height="240" rx="120" fill="#131519" />
    <g clip-path="url(#clip0_342_2)">
        <path
            d="M48.3222 59.5398L180.465 192.283C183.561 195.394 188.581 195.394 191.678 192.283C194.774 189.173 194.774 184.13 191.678 181.019L59.5349 48.2761C56.4386 45.1658 51.4185 45.1658 48.3222 48.2761C45.2259 51.3865 45.2259 56.4294 48.3222 59.5398Z"
            fill="white" fill-opacity="0.25" />
        <path
            d="M54.5301 178.482L185.768 178.75C190.147 178.759 193.69 182.332 193.681 186.731C193.672 191.13 190.115 194.688 185.736 194.679L54.4979 194.412C50.1191 194.403 46.5766 190.83 46.5855 186.431C46.5944 182.032 50.1513 178.474 54.5301 178.482Z"
            fill="white" />
        <path
            d="M54.4671 45.7864L185.533 45.7864C189.912 45.7864 193.461 49.3523 193.461 53.751C193.461 58.1497 189.912 61.7156 185.533 61.7156L54.4671 61.7156C50.0883 61.7156 46.5386 58.1497 46.5386 53.751C46.5386 49.3523 50.0883 45.7864 54.4671 45.7864Z"
            fill="white" />
        <path
            d="M79.0358 120.664C79.0358 97.937 97.3761 79.5133 120 79.5133C142.624 79.5133 160.964 97.937 160.964 120.664C160.964 143.391 142.624 161.814 120 161.814C97.3761 161.814 79.0358 143.391 79.0358 120.664ZM94.8929 120.664C94.8929 134.593 106.134 145.885 120 145.885C133.866 145.885 145.107 134.593 145.107 120.664C145.107 106.734 133.866 95.4425 120 95.4425C106.134 95.4425 94.8929 106.734 94.8929 120.664Z"
            fill="white" />
    </g>
    <defs>
        <clipPath id="clip0_342_2">
            <rect width="148" height="150" fill="white" transform="translate(46 45)" />
        </clipPath>
    </defs>
</svg>